<svg id="SvgjsSvg1026" xmlns="http://www.w3.org/2000/svg" version="1.1" xmlns:xlink="http://www.w3.org/1999/xlink" xmlns:svgjs="http://svgjs.com/svgjs" width="90" height="90" viewBox="0 0 90 90"><title>Ellipse 1</title><desc>Created with Avocode.</desc><defs id="SvgjsDefs1027"><clipPath id="SvgjsClipPath1031"><path id="SvgjsPath1030" d="M417 1031C441.853 1031 462 1051.15 462 1076C462 1100.85 441.853 1121 417 1121C392.147 1121 372 1100.85 372 1076C372 1051.15 392.147 1031 417 1031Z " fill="#ffffff"></path></clipPath></defs><path id="SvgjsPath1028" d="M417 1031C441.853 1031 462 1051.15 462 1076C462 1100.85 441.853 1121 417 1121C392.147 1121 372 1100.85 372 1076C372 1051.15 392.147 1031 417 1031Z " fill="#c0301c" fill-opacity="1" transform="matrix(1,0,0,1,-372,-1031)"></path><path id="SvgjsPath1029" d="M417 1031C441.853 1031 462 1051.15 462 1076C462 1100.85 441.853 1121 417 1121C392.147 1121 372 1100.85 372 1076C372 1051.15 392.147 1031 417 1031Z " fill-opacity="0" fill="#ffffff" stroke-dasharray="0" stroke-linejoin="miter" stroke-linecap="butt" stroke-opacity="1" stroke="#dddddd" stroke-miterlimit="50" stroke-width="4" clip-path="url(&quot;#SvgjsClipPath1031&quot;)" transform="matrix(1,0,0,1,-372,-1031)"></path><path id="SvgjsPath1032" d="M414.735 1067.22C416.57 1071 418.146 1075.04 419.49 1078.99C418.999 1079.02 418.508 1079.05 418.017 1079.05C415.45799999999997 1079.05 412.9 1078.97 410.342 1078.94ZM396 1096C397.628 1096 399.23 1095.92 400.858 1095.64C401.22 1095.5800000000002 401.737 1095.43 402.098 1095.43C405.096 1095.43 408.12 1095.95 411.117 1095.95C411.14300000000003 1095.71 411.16900000000004 1095.48 411.16900000000004 1095.24C411.16900000000004 1094.72 411.16900000000004 1094.23 411.14300000000003 1093.73C409.67 1093.53 405.87100000000004 1093.45 405.87100000000004 1091.44C405.87100000000004 1090.45 408.48100000000005 1083.63 409.153 1082.1200000000001L420.78200000000004 1082.17C421.19500000000005 1083.24 424.52900000000005 1090.97 424.52900000000005 1091.91C424.52900000000005 1092.8700000000001 423.15900000000005 1093.0600000000002 422.46200000000005 1093.21L419.076 1093.94C418.999 1094.6200000000001 418.973 1095.3 418.973 1095.97C422.358 1095.8700000000001 425.743 1095.58 429.129 1095.58C432.41 1095.58 435.692 1096 438.97400000000005 1096C438.97400000000005 1095.77 439.00000000000006 1095.56 439.00000000000006 1095.32C439.00000000000006 1094.83 438.9220000000001 1094.33 438.8450000000001 1093.84C437.6300000000001 1093.37 435.2530000000001 1093.2099999999998 434.4000000000001 1092.54C434.03800000000007 1092.25 433.6770000000001 1091.47 433.4960000000001 1091.05C432.2040000000001 1088.3999999999999 431.2990000000001 1085.61 430.1360000000001 1082.8999999999999C428.1720000000001 1078.32 426.38900000000007 1073.6599999999999 424.4510000000001 1069.05L419.15400000000005 1056.55C419.0760000000001 1056.36 418.97300000000007 1056.18 418.87000000000006 1056H415.56200000000007L408.3260000000001 1074.85L402.20200000000006 1090.8999999999999C401.1170000000001 1093.7099999999998 398.48100000000005 1093.1899999999998 396.0520000000001 1093.9399999999998Z " fill="#ffffff" fill-opacity="1" transform="matrix(1,0,0,1,-372,-1031)"></path></svg>