<svg id="SvgjsSvg1033" xmlns="http://www.w3.org/2000/svg" version="1.1" xmlns:xlink="http://www.w3.org/1999/xlink" xmlns:svgjs="http://svgjs.com/svgjs" width="90" height="90" viewBox="0 0 90 90"><title>Ellipse 1</title><desc>Created with Avocode.</desc><defs id="SvgjsDefs1034"><clipPath id="SvgjsClipPath1038"><path id="SvgjsPath1037" d="M807 1031C831.853 1031 852 1051.15 852 1076C852 1100.85 831.853 1121 807 1121C782.147 1121 762 1100.85 762 1076C762 1051.15 782.147 1031 807 1031Z " fill="#ffffff"></path></clipPath></defs><path id="SvgjsPath1035" d="M807 1031C831.853 1031 852 1051.15 852 1076C852 1100.85 831.853 1121 807 1121C782.147 1121 762 1100.85 762 1076C762 1051.15 782.147 1031 807 1031Z " fill="#ffffff" fill-opacity="1" transform="matrix(1,0,0,1,-762,-1031)"></path><path id="SvgjsPath1036" d="M807 1031C831.853 1031 852 1051.15 852 1076C852 1100.85 831.853 1121 807 1121C782.147 1121 762 1100.85 762 1076C762 1051.15 782.147 1031 807 1031Z " fill-opacity="0" fill="#ffffff" stroke-dasharray="0" stroke-linejoin="miter" stroke-linecap="butt" stroke-opacity="1" stroke="#dddddd" stroke-miterlimit="50" stroke-width="4" clip-path="url(&quot;#SvgjsClipPath1038&quot;)" transform="matrix(1,0,0,1,-762,-1031)"></path><path id="SvgjsPath1039" d="M796.155 1090.17C795.78 1090.5500000000002 795.203 1090.5500000000002 794.827 1090.17L781.375 1076.67C781 1076.29 781 1075.71 781.375 1075.3300000000002L794.827 1061.8300000000002C795.203 1061.45 795.78 1061.45 796.155 1061.8300000000002L797.5989999999999 1063.2700000000002C797.9739999999999 1063.6500000000003 797.9739999999999 1064.2300000000002 797.5989999999999 1064.6100000000001L786.2539999999999 1076.0000000000002L797.5989999999999 1087.3900000000003C797.9739999999999 1087.7700000000004 797.9739999999999 1088.3500000000004 797.5989999999999 1088.7200000000003ZM803.892 1095.22C803.7470000000001 1095.71 803.2280000000001 1096 802.7660000000001 1095.8500000000001L800.9760000000001 1095.3600000000001C800.4850000000001 1095.22 800.1970000000001 1094.69 800.3410000000001 1094.2L811.1080000000002 1056.78C811.2530000000002 1056.29 811.7720000000002 1056 812.2340000000002 1056.1399999999999L814.0240000000001 1056.6399999999999C814.5150000000001 1056.78 814.8030000000001 1057.3 814.6590000000001 1057.8ZM833.625 1076.67C834 1076.29 834 1075.71 833.625 1075.3300000000002L820.173 1061.8300000000002C819.797 1061.45 819.22 1061.45 818.845 1061.8300000000002L817.4010000000001 1063.2700000000002C817.0260000000001 1063.6500000000003 817.0260000000001 1064.2300000000002 817.4010000000001 1064.6100000000001L828.7460000000001 1076.0000000000002L817.4010000000001 1087.3900000000003C817.0260000000001 1087.7700000000004 817.0260000000001 1088.3500000000004 817.4010000000001 1088.7200000000003L818.845 1090.1700000000003C819.22 1090.5500000000004 819.797 1090.5500000000004 820.173 1090.1700000000003Z " fill="#c0301c" fill-opacity="1" transform="matrix(1,0,0,1,-762,-1031)"></path></svg>