<svg id="SvgjsSvg1040" xmlns="http://www.w3.org/2000/svg" version="1.1" xmlns:xlink="http://www.w3.org/1999/xlink" xmlns:svgjs="http://svgjs.com/svgjs" width="90" height="90" viewBox="0 0 90 90"><title>Ellipse 1</title><desc>Created with Avocode.</desc><defs id="SvgjsDefs1041"><clipPath id="SvgjsClipPath1045"><path id="SvgjsPath1044" d="M1197 1031C1221.85 1031 1242 1051.15 1242 1076C1242 1100.85 1221.85 1121 1197 1121C1172.15 1121 1152 1100.85 1152 1076C1152 1051.15 1172.15 1031 1197 1031Z " fill="#ffffff"></path></clipPath></defs><path id="SvgjsPath1042" d="M1197 1031C1221.85 1031 1242 1051.15 1242 1076C1242 1100.85 1221.85 1121 1197 1121C1172.15 1121 1152 1100.85 1152 1076C1152 1051.15 1172.15 1031 1197 1031Z " fill="#ffffff" fill-opacity="1" transform="matrix(1,0,0,1,-1152,-1031)"></path><path id="SvgjsPath1043" d="M1197 1031C1221.85 1031 1242 1051.15 1242 1076C1242 1100.85 1221.85 1121 1197 1121C1172.15 1121 1152 1100.85 1152 1076C1152 1051.15 1172.15 1031 1197 1031Z " fill-opacity="0" fill="#ffffff" stroke-dasharray="0" stroke-linejoin="miter" stroke-linecap="butt" stroke-opacity="1" stroke="#dddddd" stroke-miterlimit="50" stroke-width="4" clip-path="url(&quot;#SvgjsClipPath1045&quot;)" transform="matrix(1,0,0,1,-1152,-1031)"></path><path id="SvgjsPath1046" d="M1196.99 1051.87C1183.74 1051.87 1173 1062.61 1173 1075.86C1173 1089.12 1183.74 1099.86 1196.99 1099.86C1210.25 1099.86 1220.99 1089.12 1220.99 1075.86C1220.99 1062.61 1210.25 1051.87 1196.99 1051.87ZM1196.99 1055.29C1200.48 1055.29 1203.77 1056.18 1206.66 1057.7L1201.47 1062.9C1200.05 1062.42 1198.57 1062.15 1196.99 1062.15C1195.44 1062.15 1193.94 1062.42 1192.52 1062.9L1187.33 1057.7C1190.22 1056.18 1193.51 1055.29 1196.99 1055.29ZM1178.84 1085.53C1177.31 1082.6399999999999 1176.4299999999998 1079.34 1176.4299999999998 1075.86C1176.4299999999998 1072.3799999999999 1177.31 1069.09 1178.84 1066.1899999999998L1184.03 1071.3899999999999C1183.55 1072.81 1183.28 1074.28 1183.28 1075.86C1183.28 1077.4099999999999 1183.55 1078.9099999999999 1184.03 1080.33ZM1196.99 1096.43C1193.51 1096.43 1190.22 1095.54 1187.33 1094.02L1192.52 1088.82C1193.94 1089.3 1195.44 1089.57 1196.99 1089.57C1198.57 1089.57 1200.05 1089.3 1201.47 1088.82L1206.66 1094.02C1203.77 1095.54 1200.48 1096.43 1196.99 1096.43ZM1196.99 1086.14C1191.32 1086.14 1186.71 1081.5400000000002 1186.71 1075.8600000000001C1186.71 1070.18 1191.32 1065.5800000000002 1196.99 1065.5800000000002C1202.67 1065.5800000000002 1207.28 1070.18 1207.28 1075.8600000000001C1207.28 1081.5400000000002 1202.67 1086.14 1196.99 1086.14ZM1209.96 1080.33C1210.44 1078.9099999999999 1210.7 1077.4099999999999 1210.7 1075.86C1210.7 1074.31 1210.44 1072.81 1209.96 1071.3899999999999L1215.15 1066.1899999999998C1216.68 1069.09 1217.5600000000002 1072.3799999999999 1217.5600000000002 1075.86C1217.5600000000002 1079.34 1216.68 1082.6399999999999 1215.15 1085.53Z " fill="#c0301c" fill-opacity="1" transform="matrix(1,0,0,1,-1152,-1031)"></path></svg>